<svg width="86" height="24" viewBox="0 0 86 24" fill="none" xmlns="http://www.w3.org/2000/svg">
<path d="M84.6911 13.4034C84.6911 13.8348 84.6604 14.2046 84.5989 14.5128H75.7932C75.9931 15.2215 76.3772 15.7839 76.9458 16.1999C77.5145 16.6005 78.1522 16.8008 78.8591 16.8008C79.4277 16.8008 79.9886 16.693 80.5418 16.4772C81.0951 16.2461 81.5561 15.9072 81.9249 15.4603L84.0687 17.263C82.8547 18.7575 81.0797 19.5048 78.7438 19.5048C77.6373 19.5048 76.6154 19.2352 75.678 18.6959C74.7559 18.1412 74.0182 17.4017 73.465 16.4772C72.9272 15.5374 72.6582 14.5128 72.6582 13.4034C72.6582 12.2941 72.9272 11.2772 73.465 10.3528C74.0182 9.41296 74.7559 8.67339 75.678 8.13412C76.6154 7.57946 77.6373 7.30212 78.7438 7.30212C79.8503 7.30212 80.8569 7.57946 81.7636 8.13412C82.6703 8.67339 83.3849 9.41296 83.9074 10.3528C84.4299 11.2772 84.6911 12.2941 84.6911 13.4034ZM81.6253 12.4097C81.4563 11.6547 81.1105 11.077 80.5879 10.6763C80.0808 10.2603 79.4661 10.0523 78.7438 10.0523C78.0062 10.0523 77.3684 10.2603 76.8305 10.6763C76.2927 11.0923 75.9315 11.6701 75.7471 12.4097H81.6253Z" fill="#888888"/>
<path d="M70.5767 3.073V19.2508H67.603V3.073H70.5767Z" fill="#888888"/>
<path d="M55.0601 3.073V19.2508H52.0864V3.073H55.0601ZM62.1138 19.2508L56.0743 13.1264L61.4915 7.55655H65.5716L60.0392 13.1264L66.217 19.2508H62.1138Z" fill="#888888"/>
<path d="M50.2558 10.0986C50.1175 10.0677 49.9101 10.0523 49.6335 10.0523C48.6961 10.0523 47.943 10.3836 47.3744 11.0461C46.8058 11.6932 46.5215 12.5252 46.5215 13.5421V19.2506H43.5479V7.55635H46.5215V9.28967C46.9364 8.68879 47.4513 8.21116 48.066 7.85679C48.6961 7.48701 49.426 7.30212 50.2558 7.30212V10.0986Z" fill="#888888"/>
<path d="M37.5485 17.7714C36.4881 18.927 35.1051 19.5048 33.3992 19.5048C32.3235 19.5048 31.3323 19.2428 30.4256 18.719C29.5343 18.1797 28.8197 17.4479 28.2818 16.5234C27.7593 15.5836 27.498 14.5436 27.498 13.4034C27.498 12.2633 27.7593 11.231 28.2818 10.3066C28.8197 9.36674 29.5343 8.63486 30.4256 8.11101C31.3323 7.57175 32.3235 7.30212 33.3992 7.30212C35.1051 7.30212 36.4881 7.8799 37.5485 9.03545V7.55635H40.5452V19.2506H37.5485V17.7714ZM37.5485 13.4034C37.5485 12.7101 37.3949 12.0938 37.0875 11.5546C36.7801 10.9999 36.3576 10.5685 35.8197 10.2603C35.2818 9.95216 34.6824 9.79811 34.0216 9.79811C33.3454 9.79811 32.7385 9.95216 32.2006 10.2603C31.6627 10.5685 31.2401 10.9999 30.9327 11.5546C30.6253 12.0938 30.4717 12.7101 30.4717 13.4034C30.4717 14.0968 30.6253 14.7208 30.9327 15.2754C31.2401 15.8147 31.6627 16.2384 32.2006 16.5466C32.7385 16.8547 33.3454 17.0088 34.0216 17.0088C34.6824 17.0088 35.2818 16.8547 35.8197 16.5466C36.3576 16.2384 36.7801 15.8147 37.0875 15.2754C37.3949 14.7208 37.5485 14.0968 37.5485 13.4034Z" fill="#888888"/>
<path d="M26.1024 13.4034C26.1024 14.5436 25.8334 15.5836 25.2955 16.5234C24.7731 17.4479 24.0585 18.1797 23.1518 18.719C22.2605 19.2428 21.277 19.5048 20.2012 19.5048C18.5108 19.5048 17.12 18.927 16.0288 17.7714V23.7341H13.0552V7.55635H16.0288V9.03545C17.12 7.8799 18.5108 7.30212 20.2012 7.30212C21.277 7.30212 22.2605 7.57175 23.1518 8.11101C24.0585 8.63486 24.7731 9.36674 25.2955 10.3066C25.8334 11.231 26.1024 12.2633 26.1024 13.4034ZM23.1056 13.4034C23.1056 12.7101 22.952 12.0938 22.6446 11.5546C22.3373 10.9999 21.9147 10.5685 21.3768 10.2603C20.839 9.95216 20.2396 9.79812 19.5788 9.79812C18.9026 9.79812 18.2956 9.95216 17.7577 10.2603C17.2199 10.5685 16.7972 10.9999 16.4899 11.5546C16.1826 12.0938 16.0288 12.7101 16.0288 13.4034C16.0288 14.0968 16.1826 14.7208 16.4899 15.2754C16.7972 15.8147 17.2199 16.2384 17.7577 16.5466C18.2956 16.8547 18.9026 17.0088 19.5788 17.0088C20.2396 17.0088 20.839 16.8547 21.3768 16.5466C21.9147 16.2384 22.3373 15.8147 22.6446 15.2754C22.952 14.7208 23.1056 14.0968 23.1056 13.4034Z" fill="#888888"/>
<path d="M0.078125 17.2394C0.170331 17.1469 0.761988 16.4227 1.8531 15.0669C2.16045 15.4213 2.56769 15.7603 3.07483 16.0838C3.59733 16.392 4.11214 16.6076 4.61928 16.7309C5.12642 16.8387 5.55671 16.8927 5.91017 16.8927C6.4173 16.8927 6.82455 16.808 7.1319 16.6385C7.43925 16.469 7.59293 16.2147 7.59293 15.8758C7.59293 15.5985 7.48535 15.3982 7.27021 15.2749C7.07043 15.1516 6.8476 15.0592 6.60172 14.9976C6.37119 14.936 6.20983 14.8898 6.11763 14.8589C4.90358 14.5045 3.87395 14.1733 3.02873 13.8651C2.36791 13.6187 1.83773 13.2258 1.43816 12.6865C1.05397 12.1472 0.861878 11.554 0.861878 10.9069C0.861878 10.7991 0.877245 10.6373 0.907976 10.4216C1.07702 9.32763 1.64563 8.54189 2.61379 8.06426C3.58196 7.57122 4.68075 7.32471 5.91017 7.32471C6.72465 7.32471 7.55451 7.44026 8.39974 7.67137C9.26032 7.88708 9.97492 8.17982 10.5435 8.5496L9.25261 11.138C8.74551 10.8607 8.30753 10.645 7.93871 10.4909C7.58525 10.3369 7.18568 10.2213 6.74003 10.1443C6.26362 10.0518 5.84869 10.0056 5.49523 10.0056C4.9881 10.0056 4.60391 10.0903 4.34266 10.2598C4.09678 10.4293 3.97383 10.6373 3.97383 10.8838C3.97383 11.192 4.11214 11.4231 4.38876 11.5771C4.68075 11.7158 5.27241 11.893 6.16373 12.1087C6.11763 12.0933 6.34814 12.1549 6.85528 12.2936C8.16154 12.6325 9.10668 13.0254 9.69059 13.4723C10.2899 13.9191 10.6357 14.5662 10.7279 15.4136C10.7433 15.506 10.751 15.637 10.751 15.8065C10.751 16.4074 10.5896 16.9543 10.2669 17.4474C9.95958 17.925 9.52923 18.3256 8.97599 18.6491C8.57646 18.8956 8.08469 19.096 7.50073 19.25C6.93212 19.4041 6.38657 19.4811 5.86407 19.4811C4.61928 19.4811 3.49744 19.2885 2.49854 18.9034C1.515 18.5027 0.7082 17.9481 0.078125 17.2394Z" fill="#888888"/>
<path d="M77.6606 1.9245V5.0285H76.9744V1.9245H75.7402V1.29517H78.8894V1.9245H77.6606ZM79.942 2.5325V5.0285H79.2558V1.29517H79.958L81.1176 3.3645L82.2773 1.29517H82.9795V5.0285H82.2933V2.5325L81.2985 4.25517H80.9368L79.942 2.5325ZM83.6729 4.68717C83.6729 4.57694 83.7119 4.48272 83.7899 4.4045C83.8679 4.32272 83.9619 4.28183 84.0719 4.28183C84.1853 4.28183 84.2811 4.32094 84.3591 4.39917C84.4371 4.47739 84.4762 4.57339 84.4762 4.68717C84.4762 4.79739 84.4354 4.89161 84.3538 4.96983C84.2758 5.04805 84.1818 5.08717 84.0719 5.08717C83.9619 5.08717 83.8679 5.04805 83.7899 4.96983C83.7119 4.89161 83.6729 4.79739 83.6729 4.68717Z" fill="#888888"/>
</svg>
